# xmcd CD database file
#
# Track frame offsets:
#	151
#	11615
#	23651
#	34716
#	46742
#	57004
#	67490
#	78181
#	89441
#	100226
#	112231
#	123806
#	134394
#	145426
#	158096
#	170521
#	181111
#	192596
#	203390
#	213872
#
# Disc length: 2996 seconds
#
# Revision: 0
# Processed by: cddbd v1.5.2PL0 Copyright (c) Steve Scherf et al.
# Submitted via: CDex 1.70beta2
#
DISCID=0f0bb214
DTITLE=Robert Johnson - Delta Blues CD 2
DYEAR=1937
DGENRE=Blues
TTITLE0=Stones In My Passway
TTITLE1=I´m A Ready Rollin´Man
TTITLE2=Four Until Late
TTITLE3=Hellhound On My Trail
TTITLE4=Little Queen Of Spades 1
TTITLE5=Little Queen Of Spades 2
TTITLE6=Malted Milk
TTITLE7=Drunken Hearted Man 1
TTITLE8=Drunken Hearted Man 2
TTITLE9=Me And The Devil Blues 1
TTITLE10=Me And The Devil Blues 2
TTITLE11=Stop Breaking Down 1
TTITLE12=Stop Breaking Down 2
TTITLE13=Traveling Riverside Blues 1
TTITLE14=Traveling Riverside Blues 2
TTITLE15=Honeymoon Blues
TTITLE16=Love In Vain 1
TTITLE17=Love In Vain 2
TTITLE18=Milkcow´s Calf Blues 1
TTITLE19=Milkcow´s Calf Blues 2
EXTD=YEAR: 1937
EXTT0=
EXTT1=
EXTT2=
EXTT3=
EXTT4=
EXTT5=
EXTT6=
EXTT7=
EXTT8=
EXTT9=
EXTT10=
EXTT11=
EXTT12=
EXTT13=
EXTT14=
EXTT15=
EXTT16=
EXTT17=
EXTT18=
EXTT19=
PLAYORDER=
